<?xml version="1.0" encoding="utf-8"?>
<!-- Generator: Adobe Illustrator 22.1.0, SVG Export Plug-In . SVG Version: 6.00 Build 0)  -->
<svg version="1.1" id="Calque_1" xmlns="http://www.w3.org/2000/svg" xmlns:xlink="http://www.w3.org/1999/xlink" x="0px" y="0px"
	 viewBox="0 0 47.2 40.8" style="enable-background:new 0 0 47.2 40.8;" xml:space="preserve">
<style type="text/css">
	.st0{fill:#EA7C54;}
	.st1{fill:#E5E6E7;}
</style>
<g>
	<g>
		
			<image style="overflow:visible;opacity:0.45;" width="323" height="296" xlink:href="4CF993129D426FC5.png"  transform="matrix(0.24 0 0 0.24 -12.2741 -12.3946)">
		</image>
		<g>
			<path class="st0" d="M32.3,40.8H14.9C6.7,40.8,0,34.1,0,25.8l0-10.9C0,6.7,6.7,0,14.9,0l17.4,0c8.2,0,14.9,6.7,14.9,14.9v10.9
				C47.2,34.1,40.5,40.8,32.3,40.8z"/>
		</g>
	</g>
	<g>
		<g>
			<g>
				<path class="st1" d="M20.9,15.5c-0.3-0.3-0.5-0.5-0.8-0.8c-0.6-0.6-1.3-1.3-1.9-1.9c-0.8-0.8-1.6-1.6-2.3-2.3
					c-0.7-0.7-1.4-1.4-2-2c-0.3-0.3-0.7-0.7-1-1c0,0,0,0,0,0C12.5,7.1,12.1,7,11.7,7c-0.4,0-0.8,0.2-1.1,0.4
					c-0.3,0.3-0.5,0.7-0.4,1.1c0,0.4,0.2,0.8,0.4,1.1c0.3,0.3,0.5,0.5,0.8,0.8c0.6,0.6,1.3,1.3,1.9,1.9c0.8,0.8,1.6,1.6,2.3,2.3
					c0.7,0.7,1.4,1.4,2,2c0.3,0.3,0.7,0.7,1,1c0,0,0,0,0,0c0.3,0.3,0.7,0.4,1.1,0.4c0.4,0,0.8-0.2,1.1-0.4c0.3-0.3,0.5-0.7,0.4-1.1
					C21.3,16.2,21.2,15.8,20.9,15.5L20.9,15.5z"/>
			</g>
		</g>
		<g>
			<g>
				<path class="st1" d="M36.6,31.2c-0.3-0.3-0.5-0.5-0.8-0.8c-0.6-0.6-1.3-1.3-1.9-1.9c-0.8-0.8-1.6-1.6-2.3-2.3
					c-0.7-0.7-1.3-1.3-2-2c-0.3-0.3-0.7-0.7-1-1c0,0,0,0,0,0c-0.3-0.3-0.7-0.4-1.1-0.4c-0.4,0-0.8,0.2-1.1,0.4
					c-0.3,0.3-0.5,0.7-0.4,1.1c0,0.4,0.2,0.8,0.4,1.1c0.3,0.3,0.5,0.5,0.8,0.8c0.6,0.6,1.3,1.3,1.9,1.9c0.8,0.8,1.6,1.6,2.3,2.3
					c0.7,0.7,1.3,1.3,2,2c0.3,0.3,0.7,0.7,1,1c0,0,0,0,0,0c0.3,0.3,0.7,0.4,1.1,0.4c0.4,0,0.8-0.2,1.1-0.4c0.3-0.3,0.5-0.7,0.4-1.1
					C37,31.9,36.9,31.5,36.6,31.2L36.6,31.2z"/>
			</g>
		</g>
		<g>
			<g>
				<path class="st1" d="M18.8,23.1c-0.3,0.3-0.5,0.5-0.8,0.8c-0.6,0.6-1.3,1.3-1.9,1.9c-0.8,0.8-1.6,1.6-2.3,2.3
					c-0.7,0.7-1.4,1.4-2,2c-0.3,0.3-0.7,0.7-1,1c0,0,0,0,0,0c-0.3,0.3-0.4,0.7-0.4,1.1c0,0.4,0.2,0.8,0.4,1.1
					c0.3,0.3,0.7,0.5,1.1,0.4c0.4,0,0.8-0.2,1.1-0.4c0.3-0.3,0.5-0.5,0.8-0.8c0.6-0.6,1.3-1.3,1.9-1.9c0.8-0.8,1.6-1.6,2.3-2.3
					c0.7-0.7,1.4-1.4,2-2c0.3-0.3,0.7-0.7,1-1c0,0,0,0,0,0c0.3-0.3,0.4-0.7,0.4-1.1c0-0.4-0.2-0.8-0.4-1.1c-0.3-0.3-0.7-0.5-1.1-0.4
					C19.4,22.7,19.1,22.8,18.8,23.1L18.8,23.1z"/>
			</g>
		</g>
		<g>
			<g>
				<path class="st1" d="M34.5,7.4c-0.3,0.3-0.5,0.5-0.8,0.8c-0.6,0.6-1.3,1.3-1.9,1.9c-0.8,0.8-1.6,1.6-2.3,2.3
					c-0.7,0.7-1.3,1.3-2,2c-0.3,0.3-0.7,0.7-1,1c0,0,0,0,0,0c-0.3,0.3-0.4,0.7-0.4,1.1c0,0.4,0.2,0.8,0.4,1.1
					c0.3,0.3,0.7,0.5,1.1,0.4c0.4,0,0.8-0.2,1.1-0.4c0.3-0.3,0.5-0.5,0.8-0.8c0.6-0.6,1.3-1.3,1.9-1.9c0.8-0.8,1.6-1.6,2.3-2.3
					c0.7-0.7,1.3-1.3,2-2c0.3-0.3,0.7-0.7,1-1c0,0,0,0,0,0C36.9,9.2,37,8.9,37,8.5c0-0.4-0.2-0.8-0.4-1.1C36.3,7.2,35.9,7,35.5,7
					C35.1,7,34.8,7.1,34.5,7.4L34.5,7.4z"/>
			</g>
		</g>
		<g>
			<g>
				<path class="st1" d="M13.2,16c0-0.9,0-1.7,0-2.6c0-1.4,0-2.7,0-4.1c0-0.3,0-0.6,0-0.9c-0.5,0.5-1,1-1.5,1.5c0.9,0,1.7,0,2.6,0
					c1.4,0,2.7,0,4.1,0c0.3,0,0.6,0,0.9,0c0.4,0,0.8-0.2,1.1-0.4c0.3-0.3,0.5-0.7,0.4-1.1c0-0.4-0.1-0.8-0.4-1.1
					C20,7.1,19.7,7,19.3,7c-0.9,0-1.7,0-2.6,0c-1.4,0-2.7,0-4.1,0c-0.3,0-0.6,0-0.9,0c-0.8,0-1.5,0.7-1.5,1.5c0,0.9,0,1.7,0,2.6
					c0,1.4,0,2.7,0,4.1c0,0.3,0,0.6,0,0.9c0,0.4,0.2,0.8,0.4,1.1c0.3,0.3,0.7,0.5,1.1,0.4c0.4,0,0.8-0.1,1.1-0.4
					C13,16.8,13.2,16.4,13.2,16L13.2,16z"/>
			</g>
		</g>
		<g>
			<g>
				<path class="st1" d="M27.9,33.8c0.9,0,1.7,0,2.6,0c1.4,0,2.7,0,4.1,0c0.3,0,0.6,0,0.9,0c0.8,0,1.5-0.7,1.5-1.5
					c0-0.9,0-1.7,0-2.6c0-1.4,0-2.7,0-4.1c0-0.3,0-0.6,0-0.9c0-0.4-0.2-0.8-0.4-1.1c-0.3-0.3-0.7-0.5-1.1-0.4
					c-0.4,0-0.8,0.1-1.1,0.4C34.2,24,34,24.3,34,24.7c0,0.9,0,1.7,0,2.6c0,1.4,0,2.7,0,4.1c0,0.3,0,0.6,0,0.9c0.5-0.5,1-1,1.5-1.5
					c-0.9,0-1.7,0-2.6,0c-1.4,0-2.7,0-4.1,0c-0.3,0-0.6,0-0.9,0c-0.4,0-0.8,0.2-1.1,0.4c-0.3,0.3-0.5,0.7-0.4,1.1
					c0,0.4,0.1,0.8,0.4,1.1C27.2,33.6,27.5,33.8,27.9,33.8L27.9,33.8z"/>
			</g>
		</g>
		<g>
			<g>
				<path class="st1" d="M19.3,30.8c-0.9,0-1.7,0-2.6,0c-1.4,0-2.7,0-4.1,0c-0.3,0-0.6,0-0.9,0c0.5,0.5,1,1,1.5,1.5
					c0-0.9,0-1.7,0-2.6c0-1.4,0-2.7,0-4.1c0-0.3,0-0.6,0-0.9c0-0.4-0.2-0.8-0.4-1.1c-0.3-0.3-0.7-0.5-1.1-0.4
					c-0.4,0-0.8,0.1-1.1,0.4c-0.3,0.3-0.4,0.6-0.4,1.1c0,0.9,0,1.7,0,2.6c0,1.4,0,2.7,0,4.1c0,0.3,0,0.6,0,0.9
					c0,0.8,0.7,1.5,1.5,1.5c0.9,0,1.7,0,2.6,0c1.4,0,2.7,0,4.1,0c0.3,0,0.6,0,0.9,0c0.4,0,0.8-0.2,1.1-0.4c0.3-0.3,0.5-0.7,0.4-1.1
					c0-0.4-0.1-0.8-0.4-1.1C20,31,19.7,30.8,19.3,30.8L19.3,30.8z"/>
			</g>
		</g>
		<g>
			<g>
				<path class="st1" d="M37,16c0-0.9,0-1.7,0-2.6c0-1.4,0-2.7,0-4.1c0-0.3,0-0.6,0-0.9C37,7.7,36.3,7,35.5,7c-0.9,0-1.7,0-2.6,0
					c-1.4,0-2.7,0-4.1,0c-0.3,0-0.6,0-0.9,0c-0.4,0-0.8,0.2-1.1,0.4c-0.3,0.3-0.5,0.7-0.4,1.1c0,0.4,0.1,0.8,0.4,1.1
					c0.3,0.3,0.6,0.4,1.1,0.4c0.9,0,1.7,0,2.6,0c1.4,0,2.7,0,4.1,0c0.3,0,0.6,0,0.9,0c-0.5-0.5-1-1-1.5-1.5c0,0.9,0,1.7,0,2.6
					c0,1.4,0,2.7,0,4.1c0,0.3,0,0.6,0,0.9c0,0.4,0.2,0.8,0.4,1.1c0.3,0.3,0.7,0.5,1.1,0.4c0.4,0,0.8-0.1,1.1-0.4
					C36.8,16.8,37,16.4,37,16L37,16z"/>
			</g>
		</g>
	</g>
</g>
</svg>
